<?xml version="1.0" standalone="no"?>
<!DOCTYPE svg PUBLIC "-//W3C//DTD SVG 20010904//EN"
 "http://www.w3.org/TR/2001/REC-SVG-20010904/DTD/svg10.dtd">
<svg version="1.0" xmlns="http://www.w3.org/2000/svg"
 width="232.000000pt" height="194.000000pt" viewBox="0 0 232.000000 194.000000"
 preserveAspectRatio="xMidYMid meet">

<g transform="translate(0.000000,194.000000) scale(0.100000,-0.100000)"
fill="#FFFFFF" stroke="none">
<path d="M650 1603 c-74 -9 -168 -35 -242 -64 l-78 -31 0 -365 c0 -343 1 -365
18 -360 9 3 71 25 137 48 106 38 133 43 230 47 150 6 270 -27 390 -106 l30
-20 63 38 c102 62 170 82 302 87 90 3 130 0 185 -14 l70 -18 3 -188 c2 -176 1
-188 -15 -183 -44 13 -154 26 -225 26 -113 0 -261 -35 -357 -84 -24 -13 -33
-12 -92 15 -90 39 -168 58 -269 65 -76 6 -236 -7 -275 -22 -13 -5 -15 10 -15
96 l0 102 -26 -6 c-15 -4 -55 -20 -90 -36 l-64 -29 0 -195 c0 -108 2 -196 4
-196 2 0 35 14 73 31 226 101 440 107 621 15 37 -19 76 -41 87 -49 17 -14 22
-13 45 3 52 36 152 81 217 96 51 12 97 15 183 11 124 -6 164 -16 290 -71 44
-20 83 -36 85 -36 3 0 5 166 5 370 l0 370 -22 14 c-44 28 -204 75 -295 85
-147 18 -329 -11 -447 -71 l-39 -20 -71 30 c-162 68 -311 82 -514 47 l-42 -8
2 184 3 184 65 17 c85 22 243 23 323 2 63 -16 160 -60 205 -93 26 -18 26 -18
78 15 29 19 93 48 143 64 74 25 105 30 182 30 90 0 224 -21 241 -38 4 -4 8
-53 9 -109 l2 -102 79 -25 c44 -15 83 -26 89 -26 5 0 9 78 9 189 l0 190 -80
30 c-123 48 -203 64 -325 65 -126 1 -233 -20 -335 -66 l-66 -29 -64 29 c-113
51 -304 81 -420 65z"/>
</g>
</svg>
